<svg width="40" height="40" viewBox="0 0 40 40" fill="none" xmlns="http://www.w3.org/2000/svg">
<path d="M27.874 8.42197C28.3124 8.72061 28.6142 9.18116 28.7131 9.70233C28.8119 10.2235 28.6997 10.7626 28.401 11.201C28.1024 11.6394 27.6418 11.9412 27.1207 12.04C26.5995 12.1389 26.0604 12.0266 25.622 11.728C23.7756 10.4727 21.5622 9.87155 19.3344 10.0202C17.1067 10.1688 14.9927 11.0586 13.3293 12.548C11.666 14.0374 10.5489 16.0406 10.156 18.2384C9.76318 20.4363 10.1172 22.7024 11.1616 24.6758C12.206 26.6491 13.8808 28.2162 15.9191 29.1274C17.9574 30.0385 20.242 30.2413 22.409 29.7035C24.5759 29.1656 26.5006 27.9181 27.8763 26.1595C29.252 24.401 29.9996 22.2327 30 20C30 19.4695 30.2107 18.9608 30.5858 18.5858C30.9609 18.2107 31.4696 18 32 18C32.5305 18 33.0392 18.2107 33.4142 18.5858C33.7893 18.9608 34 19.4695 34 20C33.9995 23.126 32.9529 26.1618 31.0268 28.624C29.1007 31.0861 26.406 32.8327 23.3721 33.5856C20.3381 34.3386 17.1395 34.0545 14.2857 32.7785C11.432 31.5026 9.08738 29.3083 7.62543 26.5453C6.16348 23.7822 5.66832 20.6094 6.21883 17.5323C6.76935 14.4552 8.33387 11.6508 10.6631 9.56601C12.9924 7.48123 15.9524 6.23597 19.0715 6.02864C22.1906 5.82131 25.2893 6.66383 27.874 8.42197Z" fill="white"/>
<path d="M27.078 25.012C26.8567 25.1535 26.6097 25.2501 26.3511 25.2962C26.0925 25.3423 25.8273 25.3371 25.5707 25.2807C25.3142 25.2243 25.0712 25.118 24.8558 24.9677C24.6403 24.8175 24.4565 24.6262 24.315 24.405C24.1734 24.1837 24.0768 23.9367 24.0307 23.6781C23.9846 23.4195 23.9899 23.1543 24.0462 22.8977C24.1026 22.6412 24.2089 22.3982 24.3592 22.1827C24.5095 21.9673 24.7007 21.7835 24.922 21.642L31.886 17.188C32.3327 16.9115 32.8703 16.8219 33.3826 16.9386C33.8949 17.0552 34.3407 17.3688 34.6236 17.8115C34.9066 18.2542 35.004 18.7905 34.8948 19.3044C34.7855 19.8183 34.4785 20.2686 34.04 20.558L27.078 25.012Z" fill="white"/>
<path d="M37.806 24.82C38.0102 25.3023 38.017 25.8454 37.8251 26.3327C37.6331 26.8199 37.2576 27.2125 36.7794 27.4259C36.3011 27.6394 35.7582 27.6567 35.2673 27.4743C34.7764 27.2918 34.3767 26.924 34.154 26.45L31.138 19.69C31.025 19.4493 30.961 19.1885 30.95 18.9228C30.9389 18.6571 30.9809 18.3919 31.0736 18.1427C31.1662 17.8935 31.3077 17.6652 31.4896 17.4713C31.6715 17.2773 31.8903 17.1216 32.1331 17.0133C32.3759 16.9049 32.6379 16.846 32.9037 16.8401C33.1696 16.8342 33.4339 16.8813 33.6813 16.9788C33.9287 17.0763 34.1542 17.2221 34.3446 17.4077C34.5349 17.5933 34.6864 17.8151 34.79 18.06L37.806 24.82Z" fill="white"/>
</svg>
